<mxfile host="app.diagrams.net" agent="Mozilla/5.0 (Windows NT 10.0; Win64; x64) AppleWebKit/537.36 (KHTML, like Gecko) Chrome/139.0.0.0 Safari/537.36" version="28.2.0">
  <diagram name="Página-1" id="LVxENaEav2FPMvkR2sTb">
    <mxGraphModel dx="1739" dy="498" grid="1" gridSize="10" guides="1" tooltips="1" connect="1" arrows="1" fold="1" page="1" pageScale="1" pageWidth="827" pageHeight="1169" math="0" shadow="0">
      <root>
        <mxCell id="0" />
        <mxCell id="1" parent="0" />
        <mxCell id="9sZPdOFYszLbej_9wSq5-4" value="Persona" style="swimlane;fontStyle=1;align=center;verticalAlign=top;childLayout=stackLayout;horizontal=1;startSize=26;horizontalStack=0;resizeParent=1;resizeParentMax=0;resizeLast=0;collapsible=1;marginBottom=0;whiteSpace=wrap;html=1;" parent="1" vertex="1">
          <mxGeometry x="100" y="70" width="210" height="168" as="geometry" />
        </mxCell>
        <mxCell id="9sZPdOFYszLbej_9wSq5-5" value="- edad: Integer&lt;div&gt;&lt;br&gt;&lt;/div&gt;" style="text;strokeColor=none;fillColor=none;align=left;verticalAlign=top;spacingLeft=4;spacingRight=4;overflow=hidden;rotatable=0;points=[[0,0.5],[1,0.5]];portConstraint=eastwest;whiteSpace=wrap;html=1;" parent="9sZPdOFYszLbej_9wSq5-4" vertex="1">
          <mxGeometry y="26" width="210" height="34" as="geometry" />
        </mxCell>
        <mxCell id="9sZPdOFYszLbej_9wSq5-6" value="" style="line;strokeWidth=1;fillColor=none;align=left;verticalAlign=middle;spacingTop=-1;spacingLeft=3;spacingRight=3;rotatable=0;labelPosition=right;points=[];portConstraint=eastwest;strokeColor=inherit;" parent="9sZPdOFYszLbej_9wSq5-4" vertex="1">
          <mxGeometry y="60" width="210" height="8" as="geometry" />
        </mxCell>
        <mxCell id="9sZPdOFYszLbej_9wSq5-7" value="&lt;div&gt;+ method getEdad(): Integer&lt;/div&gt;&lt;div&gt;+ method esDestacado(): boolean&lt;/div&gt;&lt;div&gt;+ method getInteligencia(): Integer&lt;/div&gt;&lt;div&gt;+´method getPotencia(): Integer&lt;/div&gt;" style="text;strokeColor=none;fillColor=none;align=left;verticalAlign=top;spacingLeft=4;spacingRight=4;overflow=hidden;rotatable=0;points=[[0,0.5],[1,0.5]];portConstraint=eastwest;whiteSpace=wrap;html=1;" parent="9sZPdOFYszLbej_9wSq5-4" vertex="1">
          <mxGeometry y="68" width="210" height="100" as="geometry" />
        </mxCell>
        <mxCell id="9sZPdOFYszLbej_9wSq5-8" value="Atleta" style="swimlane;fontStyle=1;align=center;verticalAlign=top;childLayout=stackLayout;horizontal=1;startSize=26;horizontalStack=0;resizeParent=1;resizeParentMax=0;resizeLast=0;collapsible=1;marginBottom=0;whiteSpace=wrap;html=1;" parent="1" vertex="1">
          <mxGeometry x="-80" y="300" width="300" height="170" as="geometry" />
        </mxCell>
        <mxCell id="9sZPdOFYszLbej_9wSq5-9" value="- masaMuscular: Integer = 4&lt;div&gt;-cantTecnicasConocidas: Integer = 2&lt;/div&gt;" style="text;strokeColor=none;fillColor=none;align=left;verticalAlign=top;spacingLeft=4;spacingRight=4;overflow=hidden;rotatable=0;points=[[0,0.5],[1,0.5]];portConstraint=eastwest;whiteSpace=wrap;html=1;" parent="9sZPdOFYszLbej_9wSq5-8" vertex="1">
          <mxGeometry y="26" width="300" height="34" as="geometry" />
        </mxCell>
        <mxCell id="9sZPdOFYszLbej_9wSq5-10" value="" style="line;strokeWidth=1;fillColor=none;align=left;verticalAlign=middle;spacingTop=-1;spacingLeft=3;spacingRight=3;rotatable=0;labelPosition=right;points=[];portConstraint=eastwest;strokeColor=inherit;" parent="9sZPdOFYszLbej_9wSq5-8" vertex="1">
          <mxGeometry y="60" width="300" height="8" as="geometry" />
        </mxCell>
        <mxCell id="9sZPdOFYszLbej_9wSq5-11" value="+ method getMasaMuscular (): Integer&lt;div&gt;+ method getPotencia() : Integer&lt;/div&gt;&lt;div&gt;+method esDestacado(): boolean&lt;/div&gt;&lt;div&gt;+ method entrenar(Integer cantDias): void&lt;/div&gt;&lt;div&gt;+ method aprenderTecnica(): void&lt;/div&gt;" style="text;strokeColor=none;fillColor=none;align=left;verticalAlign=top;spacingLeft=4;spacingRight=4;overflow=hidden;rotatable=0;points=[[0,0.5],[1,0.5]];portConstraint=eastwest;whiteSpace=wrap;html=1;" parent="9sZPdOFYszLbej_9wSq5-8" vertex="1">
          <mxGeometry y="68" width="300" height="102" as="geometry" />
        </mxCell>
        <mxCell id="cywmzZSHZNw3OwEjGPr--1" value="Docente" style="swimlane;fontStyle=1;align=center;verticalAlign=top;childLayout=stackLayout;horizontal=1;startSize=26;horizontalStack=0;resizeParent=1;resizeParentMax=0;resizeLast=0;collapsible=1;marginBottom=0;whiteSpace=wrap;html=1;" vertex="1" parent="1">
          <mxGeometry x="269" y="300" width="290" height="110" as="geometry" />
        </mxCell>
        <mxCell id="cywmzZSHZNw3OwEjGPr--2" value="- cantCursosDados: Integer = 0&lt;div&gt;&lt;br&gt;&lt;/div&gt;" style="text;strokeColor=none;fillColor=none;align=left;verticalAlign=top;spacingLeft=4;spacingRight=4;overflow=hidden;rotatable=0;points=[[0,0.5],[1,0.5]];portConstraint=eastwest;whiteSpace=wrap;html=1;" vertex="1" parent="cywmzZSHZNw3OwEjGPr--1">
          <mxGeometry y="26" width="290" height="34" as="geometry" />
        </mxCell>
        <mxCell id="cywmzZSHZNw3OwEjGPr--3" value="" style="line;strokeWidth=1;fillColor=none;align=left;verticalAlign=middle;spacingTop=-1;spacingLeft=3;spacingRight=3;rotatable=0;labelPosition=right;points=[];portConstraint=eastwest;strokeColor=inherit;" vertex="1" parent="cywmzZSHZNw3OwEjGPr--1">
          <mxGeometry y="60" width="290" height="8" as="geometry" />
        </mxCell>
        <mxCell id="cywmzZSHZNw3OwEjGPr--4" value="&lt;div&gt;+method esDestacado(): boolean&lt;/div&gt;&lt;div&gt;&lt;span style=&quot;background-color: transparent; color: light-dark(rgb(0, 0, 0), rgb(255, 255, 255));&quot;&gt;+ method getInteligencia(): Integer&lt;/span&gt;&lt;/div&gt;&lt;div&gt;&lt;br&gt;&lt;/div&gt;" style="text;strokeColor=none;fillColor=none;align=left;verticalAlign=top;spacingLeft=4;spacingRight=4;overflow=hidden;rotatable=0;points=[[0,0.5],[1,0.5]];portConstraint=eastwest;whiteSpace=wrap;html=1;" vertex="1" parent="cywmzZSHZNw3OwEjGPr--1">
          <mxGeometry y="68" width="290" height="42" as="geometry" />
        </mxCell>
        <mxCell id="cywmzZSHZNw3OwEjGPr--5" value="" style="endArrow=block;endSize=16;endFill=0;html=1;rounded=0;exitX=0.5;exitY=0;exitDx=0;exitDy=0;entryX=1;entryY=0.94;entryDx=0;entryDy=0;entryPerimeter=0;" edge="1" parent="1" source="cywmzZSHZNw3OwEjGPr--1" target="9sZPdOFYszLbej_9wSq5-7">
          <mxGeometry width="160" relative="1" as="geometry">
            <mxPoint x="310" y="270" as="sourcePoint" />
            <mxPoint x="205" y="260" as="targetPoint" />
          </mxGeometry>
        </mxCell>
        <mxCell id="cywmzZSHZNw3OwEjGPr--7" value="" style="endArrow=block;endSize=16;endFill=0;html=1;rounded=0;exitX=0.5;exitY=0;exitDx=0;exitDy=0;" edge="1" parent="1" source="9sZPdOFYszLbej_9wSq5-8" target="9sZPdOFYszLbej_9wSq5-7">
          <mxGeometry width="160" relative="1" as="geometry">
            <mxPoint x="170" y="310" as="sourcePoint" />
            <mxPoint x="205" y="263" as="targetPoint" />
          </mxGeometry>
        </mxCell>
      </root>
    </mxGraphModel>
  </diagram>
</mxfile>
